# xmcd
#
# Track frame offsets:
#	150
#	9290
#	18275
#	27450
#	36455
#	45405
#	54402
#	63480
#	72170
#	76832
#	85840
#	95195
#	103907
#	112970
#	121970
#	130970
#	139892
#	148920
#	158005
#	166907
#	171245
#	180545
#	189432
#	198507
#	207320
#	216687
#	225920
#	234720
#
# Disc length: 3183 seconds
#
# Revision: 1
# Processed by: cddbd v1.5.2PL0 Copyright (c) Steve Scherf et al.
# Submitted via: audiograbber 1.83.01
#
DISCID=8e0c6d1c
DTITLE=Various Artist - Relaxation and New Age Sampler
DYEAR=1900
DGENRE=New Age
TTITLE0=Claire Hamill - Someday We Will All Be Together
TTITLE1=Stephen Caudel - Wine Dark Sea
TTITLE2=Incantation - On The Wing Of  A  Condor
TTITLE3=Incantation - Dolencias
TTITLE4=Claire Hamill - Mist On The Ridge
TTITLE5=Claire Hamill - Awaken - Larkrise
TTITLE6=Rick Wakeman - Heather Carpets
TTITLE7=Rick Wakeman - Ducks And Drakes
TTITLE8=Dan Gibson - Seascapes
TTITLE9=Ken Davis - Calling Out Your Name
TTITLE10=Ken Davis - Fly Like A Bird
TTITLE11=Ken Davis - To Be With You
TTITLE12=Dan Gibson - Debussy's ''Reverie''
TTITLE13=Dan Gibson - Chopin's ''Nocturne in E Flat - Opus 9, No. 2''
TTITLE14=Dan Gibson - Liszt's ''Liebestraum''
TTITLE15=Gary Lamb - Home At Last
TTITLE16=Gary Lamb - The Way You Walk To My Door
TTITLE17=Gary Lamb - Friendship
TTITLE18=Gary Lamb - Christmas
TTITLE19=Dan Gibson - Pacific Morning
TTITLE20=Dan Gibson - Spring Cloudburst
TTITLE21=Dan Gibson - Hardwood Haven
TTITLE22=Dan Gibson - Dunes On The Cape
TTITLE23=Jeff Clarkson - Songbird
TTITLE24=Jeff Clarkson - In Extenso
TTITLE25=The International Concert Orchestra - Grieg's ''Piano Concerto in A Mi
TTITLE25=nor, Opus 16''
TTITLE26=Nowomowa - Atlantis
TTITLE27=Dan Gibson - Arctic
EXTD=
EXTT0=
EXTT1=
EXTT2=
EXTT3=
EXTT4=
EXTT5=
EXTT6=
EXTT7=
EXTT8=
EXTT9=
EXTT10=
EXTT11=
EXTT12=
EXTT13=
EXTT14=
EXTT15=
EXTT16=
EXTT17=
EXTT18=
EXTT19=
EXTT20=
EXTT21=
EXTT22=
EXTT23=
EXTT24=
EXTT25=
EXTT26=
EXTT27=
PLAYORDER=
